<?xml version="1.0" encoding="utf-8"?>
<!-- Generator: Adobe Illustrator 19.0.0, SVG Export Plug-In . SVG Version: 6.00 Build 0)  -->
<svg width="200" height="60" version="1.1" id="圖層_1" xmlns="http://www.w3.org/2000/svg" xmlns:xlink="http://www.w3.org/1999/xlink" x="0px" y="0px"
	 viewBox="0 0 100 30" style="enable-background:new 0 0 100 30;" xml:space="preserve">
<style type="text/css">
	.st0{fill:none;stroke:#3E3A39;stroke-width:0.5;stroke-linecap:round;stroke-miterlimit:10;}
	.st1{fill:none;stroke:#3E3A39;stroke-width:0.5;stroke-linejoin:round;stroke-miterlimit:10;}
	.st2{fill:#3E3A39;}
	.st3{fill:none;stroke:#3E3A39;stroke-width:0.5;stroke-linecap:round;stroke-linejoin:round;stroke-miterlimit:10;}
</style>
<g id="圖層_2">
	<path id="XMLID_10_" class="st0" d="M9.8,9.8c0,0,5.1-0.7,5.2,4.5c-0.7,4.1-1.3,3.9-1.7,6c-0.4,2-1.4,4.1-1.1,6.2
		c0,0-0.1,0.4-0.3,0.9s-4.6-1.7-6.3-9.2S6.8,10.3,9.8,9.8z"/>
	<path id="XMLID_9_" class="st0" d="M5.5,18.3c0,0-1.2,1.1-1.8,0.8s-1.2-2.2-1.6-2.2c-0.4,0,0,2.8,0.5,3.2s1.8,1.3,3.2-0.1"/>
	<path id="XMLID_8_" class="st0" d="M14.6,16.7c0,0,2.2,0.6,2.5,1.8c0.4,1.2-1,2.6-1.3,2.9c-0.2,0.3,1.4-3.1-1.9-3"/>
	<path id="XMLID_5_" class="st0" d="M5.5,16.5c0.5,0.3,0.7-0.1,1-0.3"/>
	<path id="XMLID_4_" class="st0" d="M5.2,12.5c0.5-0.7-1.7,2.7-1.4,3c0.1,0.1,1,0,1,0"/>
	<line id="XMLID_3_" class="st0" x1="7" y1="12.3" x2="8.6" y2="12.6"/>
	<line id="XMLID_2_" class="st0" x1="7.3" y1="12.9" x2="7.9" y2="13"/>
	<path id="XMLID_1_" class="st1" d="M8.8,9.9c0,0-0.2-2.6,2.7-4s5.1-1.3,6-2s2.7-2.9,3.7-2.5c1.1,0.5,0.2,0.9,0.2,0.9
		s1.9-0.9,2.4-0.5s-0.1,0.9-0.1,0.9s1.4-0.3,1.9-0.1c0.4,0.2,1.1,0.5,1.2,0.8s-0.3,1-0.8,1.1c0,0,1.6,0.5,1.4,1.4s-3.5-0.2-3.5-0.2
		s2.1,1,1.5,1.5c-0.6,0.4-2.9-0.6-2.9-0.6S24,7.7,23.4,8c-0.6,0.3-2-0.8-3.4-1.8c-1.5-1-7.1,0.3-7.1,0.3c-1.7,0.3-3,3.3-3,3.3"/>
</g>
<g id="XMLID_13_">
	<path id="XMLID_14_" class="st2" d="M37.9,22.4c-0.8,0.5-1.7,0.8-2.8,0.8c-1.3,0-2.3-0.4-3-1.3c-0.7-0.9-1-2.2-1-3.9
		c0-1.6,0.3-2.9,1-3.9c0.7-0.9,1.7-1.4,3-1.4c0.5,0,1,0.1,1.4,0.2c0.5,0.1,0.9,0.3,1.2,0.5l-0.4,0.9c-0.7-0.4-1.4-0.6-2.2-0.6
		c-0.9,0-1.6,0.3-2.1,1c-0.5,0.7-0.7,1.7-0.7,3.2c0,2.8,0.9,4.2,2.8,4.2c0.8,0,1.6-0.2,2.4-0.7L37.9,22.4z"/>
	<path id="XMLID_16_" class="st2" d="M43.4,12.7c1.1,0,2,0.4,2.6,1.3c0.6,0.9,0.9,2.2,0.9,3.9c0,1.7-0.3,3-0.9,3.9
		c-0.6,0.9-1.5,1.3-2.6,1.3c-1.1,0-2-0.4-2.6-1.3c-0.6-0.9-0.9-2.2-0.9-3.9s0.3-3,0.9-3.9C41.4,13.2,42.2,12.7,43.4,12.7z
		 M43.4,22.2c1.5,0,2.2-1.4,2.2-4.2c0-2.8-0.7-4.2-2.2-4.2c-0.7,0-1.3,0.4-1.7,1.1c-0.4,0.7-0.6,1.8-0.6,3.1c0,1.4,0.2,2.4,0.6,3.1
		C42.1,21.8,42.7,22.2,43.4,22.2z"/>
	<path id="XMLID_19_" class="st2" d="M49.6,12.9h2.6c1,0,1.7,0.2,2.3,0.7c0.6,0.5,0.9,1.2,0.9,2c0,0.9-0.3,1.5-0.9,2.1
		s-1.3,0.8-2.3,0.8h-1.4V23h-1.2V12.9z M50.8,17.5h1.3c1.4,0,2.1-0.6,2.1-1.7c0-0.5-0.2-1-0.6-1.3c-0.4-0.3-0.9-0.5-1.5-0.5h-1.3
		V17.5z"/>
	<path id="XMLID_22_" class="st2" d="M63.7,23h-5.3V12.9h5.2v1h-4.1v3.1h3.9v1h-3.9V22h4.1V23z"/>
	<path id="XMLID_24_" class="st2" d="M72.9,23h-1.3L68,15v8h-1.2V12.9h1.3l3.6,7.9v-7.9h1.2V23z"/>
	<path id="XMLID_26_" class="st2" d="M80.8,14c-0.6-0.2-1.2-0.3-1.7-0.3c-0.6,0-1.1,0.1-1.5,0.4c-0.4,0.3-0.6,0.7-0.6,1.2
		c0,0.6,0.5,1.1,1.5,1.6c0.7,0.3,1.2,0.6,1.5,0.7c0.2,0.1,0.5,0.3,0.7,0.6c0.2,0.2,0.4,0.5,0.6,0.8c0.2,0.3,0.2,0.7,0.2,1.1
		c0,1-0.3,1.7-1,2.3c-0.7,0.5-1.4,0.8-2.3,0.8c-0.9,0-1.6-0.2-2.3-0.5l0.2-1c0.8,0.3,1.4,0.5,2,0.5c0.7,0,1.2-0.2,1.6-0.5
		c0.4-0.3,0.6-0.8,0.6-1.4c0-0.4-0.1-0.8-0.4-1.1c-0.3-0.3-0.7-0.6-1.5-1c-0.7-0.3-1.2-0.6-1.4-0.7s-0.4-0.3-0.6-0.5
		c-0.2-0.2-0.4-0.5-0.5-0.7s-0.2-0.6-0.2-0.9c0-0.8,0.3-1.5,0.9-2c0.6-0.5,1.4-0.7,2.3-0.7c0.7,0,1.3,0.1,2,0.3L80.8,14z"/>
</g>
<path id="XMLID_7_" class="st3" d="M8.1,24.2c0,0-3.6-0.2-1.4,3.7c0.6,0.2,0-2.6,2.4-2.3"/>
<path id="XMLID_6_" class="st3" d="M12.4,26.2c0,0,3.7,0.9,3.5-3.5c-0.4-0.5-1.5,3.2-3.5,1.9"/>
</svg>
