<?xml version="1.0" encoding="utf-8"?>
<!-- Generator: Adobe Illustrator 21.1.0, SVG Export Plug-In . SVG Version: 6.00 Build 0)  -->
<svg version="1.1" id="圖層_1" xmlns="http://www.w3.org/2000/svg" xmlns:xlink="http://www.w3.org/1999/xlink" x="0px" y="0px"
	 viewBox="0 0 134 134" style="enable-background:new 0 0 134 134;" xml:space="preserve">
<style type="text/css">
	.st0{fill:url(#SVGID_1_);stroke:#FFFFFF;stroke-width:1.5;stroke-miterlimit:10;}
	.st1{fill:#CC3333;stroke:#FFFFFF;stroke-width:1.5;stroke-miterlimit:10;}
	.st2{fill:#CC3333;}
	.st3{fill:url(#SVGID_2_);stroke:#FFFFFF;stroke-width:1.5;stroke-miterlimit:10;}
</style>
<g>
	<g>
		
			<linearGradient id="SVGID_1_" gradientUnits="userSpaceOnUse" x1="117.7918" y1="90.3956" x2="56.5597" y2="55.0433" gradientTransform="matrix(1 0 0 -1 0 136)">
			<stop  offset="0" style="stop-color:#FF6633"/>
			<stop  offset="0.7164" style="stop-color:#CC3333"/>
		</linearGradient>
		<path class="st0" d="M107.7,28.4c0.8,0.5,0.4,1.3,0.4,1.8c0,14.3,0,28.7,0.1,43c0,1.4-0.4,2.1-1.6,2.7
			c-12.7,7.3-25.4,14.7-38.1,22c-0.6,0.3-1.3,1.3-2,0.1c0.7-0.6,0.5-1.4,0.5-2.1c0-2.9,0-5.7,0-8.6c9.4-5.4,18.8-10.8,28.1-16.2
			c1.1-0.7,0.9-1,0.1-1.7c-1.3-1-2.7-1.9-3.9-3c-0.9-0.8-1.6-0.7-2.6-0.1c-4.4,2.6-8.8,5.2-13.3,7.8c-2.8,1.6-5.4,3.4-8.4,4.7
			c0-8.6,0.1-17.2-0.1-25.7c0-1.4,0.4-2.3,1.7-3c3-1.6,6-3.3,9-4.9c4.6-2.6,9.3-4.9,13.7-7.8c3-0.4,5.2-2.2,7.4-4.2
			C101.9,32,104.8,30.2,107.7,28.4z"/>
		<path class="st1" d="M107.7,28.4c-2.9,1.8-5.8,3.7-9,4.9c-9.9-5.7-19.8-11.3-29.8-17c-1.3-0.7-2.1-0.7-3.4,0
			c-9.4,5.5-18.8,11-28.3,16.3c-1,0.6-1.4,1.3-1.4,2.5c0.1,10.8,0.1,21.7,0,32.5c0,1.4,0.4,2.2,1.7,2.9c9.2,5.3,18.4,10.7,27.6,16
			c0.6,0.3,1.2,0.6,1.8,0.9c0,2.9,0,5.7,0,8.6c0,0.7,0.2,1.5-0.5,2.1C57.3,93,48.3,87.8,39.2,82.7c-4.1-2.3-8-4.7-12.2-6.9
			c-1-0.6-1.4-1.1-1.4-2.4c0.1-14.5,0.1-28.9,0-43.4c0-1.3,0.5-1.9,1.5-2.6C40,19.8,52.7,12.3,65.4,4.7c0.9-0.5,1.5-0.9,2.6-0.2
			c13.1,7.9,26.3,15.8,39.5,23.7C107.6,28.2,107.6,28.3,107.7,28.4z"/>
		<path class="st2" d="M96.5,118.7c-1.4,2.7-2.7,5.5-4.1,8.2c-0.3,0.7-0.6,1.3-1.7,1.3c-1,0-1.3-0.5-1.7-1.2
			c-1.3-2.7-2.7-5.5-4.5-8.2c0,3-0.1,5.9,0.1,8.8c0.1,1.5-0.3,2-1.9,2c-1.7,0-1.9-0.6-1.9-2.1c0.1-4.6,0.1-9.2,0-13.8
			c0-1.3,0.4-1.5,1.6-1.7c2.6-0.3,4.2,0.5,5,3.1c0.7,2.2,2,4.3,3.2,6.9c1.4-3,2.8-5.8,4.1-8.6c0.4-0.9,0.8-1.4,1.9-1.4
			c3.8-0.1,3.8-0.1,3.8,3.6c0,4-0.1,7.9,0,11.9c0,1.4-0.2,1.9-1.8,1.9c-1.4,0-1.9-0.3-1.8-1.8c0.1-3,0.1-6,0.1-9
			C96.8,118.8,96.7,118.7,96.5,118.7z"/>
		<path class="st2" d="M59.7,122.8c1.1-3.4,2.1-6.3,2.9-9.3c0.4-1.5,1.4-1.3,2.3-1.3c1,0,2-0.2,2.3,1.3c0.8,3,1.8,5.9,2.8,9.4
			c1.1-3.2,2.1-5.9,3-8.6c0.7-1.9,1.9-2.6,3.9-2.1c0.9,0.2,0.5,0.6,0.3,1c-1.8,5.1-3.7,10.3-5.4,15.5c-0.3,1-1.1,0.8-1.8,0.9
			c-1,0.1-1.3-0.4-1.5-1.3c-0.9-2.9-1.8-5.8-2.7-8.6c-0.2-0.5,0-1.3-0.9-1.2c-0.7,0.1-0.8,0.6-1,1.1c-0.9,2.9-1.9,5.7-2.7,8.6
			c-0.3,1-0.7,1.3-1.7,1.3s-1.5-0.3-1.8-1.3c-1.7-5-3.5-9.9-5.2-14.9c-0.3-1-0.1-1.2,1-1.3c1.9-0.2,2.8,0.5,3.3,2.3
			C57.6,117.1,58.6,119.6,59.7,122.8z"/>
		<path class="st2" d="M33.9,120.7c0.1-3.7,1.8-6.4,5.1-8c3.4-1.5,6.7-1.2,9.7,1c0.6,0.4,1.8,0.9,0.6,2c-0.7,0.6-1,2.1-2.6,0.7
			c-2.5-2.1-5.9-1.6-7.9,0.7c-1.7,1.9-1.7,5.4,0.1,7.4c2,2.3,5.1,2.6,7.7,0.5c1.5-1.3,1.8,0.1,2.5,0.7c1.1,0.9,0.1,1.4-0.5,1.9
			c-3,2.5-6.4,2.8-9.8,1.2C35.5,127.3,33.8,124.5,33.9,120.7z"/>
		
			<linearGradient id="SVGID_2_" gradientUnits="userSpaceOnUse" x1="48.4217" y1="103.5228" x2="80.8878" y2="71.0567" gradientTransform="matrix(1 0 0 -1 0 136)">
			<stop  offset="0" style="stop-color:#FF6633"/>
			<stop  offset="1" style="stop-color:#CC3333"/>
		</linearGradient>
		<path class="st3" d="M91.2,37.5c-4.4,2.9-9.1,5.2-13.7,7.8c-3,1.7-6,3.3-9,4.9c-1.2,0.6-1.7,1.5-1.7,3c0.1,8.6,0.1,17.1,0.1,25.7
			c-0.2,0-0.5,0.1-0.6-0.1c-7.4-4.3-14.8-8.6-22.2-13c-0.6-0.4-1-0.8-1-1.6c0-8.6,0-17.2,0-25.7c0-0.8,0.3-1.3,1-1.8
			c5.6-3.1,11.1-6.4,16.7-9.6c2-1.1,4-3.1,6-3.1c2.1,0,4.1,1.9,6.1,3c0.3,0.2,0.6,0.3,0.9,0.5C79.7,30.9,85.5,34.2,91.2,37.5z"/>
	</g>
</g>
</svg>
